<svg xmlns="http://www.w3.org/2000/svg" viewBox="0 0 138.38 49.12"><defs><style>.cls-1{fill:#3ba699;}.cls-2{fill:#fdfdfd;}</style></defs><g id="Capa_2" data-name="Capa 2"><g id="Capa_1-2" data-name="Capa 1"><path class="cls-1" d="M21.25,4.8A17.15,17.15,0,0,1,24.43,5c.82.16,1.23.49,1.23,1s-.34.84-1,1.24a13.55,13.55,0,0,0-4.5,5,52.62,52.62,0,0,0-4,10.16,18.27,18.27,0,0,1,2.84.16l-.19,1.28a8.91,8.91,0,0,0-1.6-.16,8.44,8.44,0,0,0-1.57.16,22.4,22.4,0,0,1-2.09,4.42,14.86,14.86,0,0,1-2.83,3.16,16.35,16.35,0,0,1-3.84,2.44,9,9,0,0,1-3.6,1A3.32,3.32,0,0,1,.86,34,2.84,2.84,0,0,1,0,31.84a5.94,5.94,0,0,1,1.92-4.06A15.37,15.37,0,0,1,7,24.38a22.12,22.12,0,0,1,6.64-1.72c0-.09.37-1.1,1-3A30.62,30.62,0,0,1,17.94,12,17.09,17.09,0,0,1,22.37,7.3a11.29,11.29,0,0,0-1.44-.07,18.21,18.21,0,0,0-9.09,2c-2.37,1.34-3.55,2.86-3.55,4.54a5.18,5.18,0,0,0,1,3A15.24,15.24,0,0,0,12,19.68l-.77,1.06q-5.2-2.82-5.21-7.11A6.18,6.18,0,0,1,8.18,9.09a14.11,14.11,0,0,1,5.6-3.17A24.06,24.06,0,0,1,21.25,4.8ZM8.18,31.62a11.52,11.52,0,0,0,3-3,12.42,12.42,0,0,0,2-4.55,15,15,0,0,0-7.06,2.39q-2.89,2-2.9,4.4a1.78,1.78,0,0,0,.48,1.31,1.83,1.83,0,0,0,1.35.48A5.83,5.83,0,0,0,8.18,31.62Z"/><path class="cls-1" d="M30.18,15.2a5.81,5.81,0,0,1,.83,3,6.8,6.8,0,0,1-1.79,4.62,5.48,5.48,0,0,1-4.23,2,3.81,3.81,0,0,1-2.89-1.08,4,4,0,0,1-1-3,7.59,7.59,0,0,1,2.36-5.45A7.29,7.29,0,0,1,28.74,13a6.54,6.54,0,0,1,.76,0l.1,1.06a6.27,6.27,0,0,0-4.26,1.47,4.77,4.77,0,0,0-1.69,3.78,3.44,3.44,0,0,0,.67,2.22,2.55,2.55,0,0,0,4-.3,4.79,4.79,0,0,0,.77-2.71,6.48,6.48,0,0,0-.61-2.83Z"/><path class="cls-1" d="M44.48,21.18l.67.55A5.5,5.5,0,0,1,43.44,24a3.54,3.54,0,0,1-2.11.93,1.82,1.82,0,0,1-1.49-.66,2.62,2.62,0,0,1-.55-1.71,13.47,13.47,0,0,1,.36-2.72,14.48,14.48,0,0,1-3.23,3.71A5.2,5.2,0,0,1,33.5,24.9c-1.19,0-1.79-.86-1.79-2.56a14.8,14.8,0,0,1,1.47-5.57,13.8,13.8,0,0,1,2.15-3.94l1.53.67a19.82,19.82,0,0,0-2,4.16,11.22,11.22,0,0,0-.67,2.74,1.43,1.43,0,0,0,.43,1.1,1.4,1.4,0,0,0,1,.42c.85,0,1.91-.78,3.18-2.35a30.08,30.08,0,0,0,3.89-7l1.63.74c0,.17-.53,1.41-1.45,3.71a19.41,19.41,0,0,0-1.4,4.15,1.57,1.57,0,0,0,.31,1,.84.84,0,0,0,.61.35,2.69,2.69,0,0,0,.46,0,1.08,1.08,0,0,0,.32-.13l.27-.16a1,1,0,0,0,.27-.23l.26-.22a3.75,3.75,0,0,1,.24-.3Z"/><path class="cls-1" d="M54.69,13.38a1.73,1.73,0,0,1,1.31.54,2,2,0,0,1,.51,1.41,5.35,5.35,0,0,1-2,3.65l-.77-.61a4.08,4.08,0,0,0,.45-1.44q0-.87-1-.87a2.37,2.37,0,0,0-1.83,1.22,25,25,0,0,0-2,3.76q-1.17,2.55-1.77,3.6l-1.83-.8c1.17-2.67,1.85-4.23,2-4.7a19.89,19.89,0,0,0,.86-6.34l1.79-.48a27.05,27.05,0,0,1-.29,3.22,35.86,35.86,0,0,1-.92,3.69Q52.47,13.38,54.69,13.38Z"/><path class="cls-1" d="M70.5,20.83l.67.51a6.87,6.87,0,0,1-1.94,2.37,3.77,3.77,0,0,1-2.22,1,2.13,2.13,0,0,1-1.57-.57,2,2,0,0,1-.58-1.44,8.25,8.25,0,0,1,1.11-3,8.25,8.25,0,0,0,1.1-3.18,1.13,1.13,0,0,0-.37-.82,1.2,1.2,0,0,0-.88-.37c-1.08,0-2.18.83-3.29,2.48a47.46,47.46,0,0,0-3.71,7.16l-1.92-.68A49,49,0,0,1,58.64,17a24.67,24.67,0,0,1,2.1-5.08l1.31.42a67.88,67.88,0,0,0-2.27,7.84q4.41-7.54,8.12-7.55a1.77,1.77,0,0,1,1.33.54,1.8,1.8,0,0,1,.53,1.28,4.23,4.23,0,0,1-.19,1.33c-.13.4-.53,1.31-1.2,2.75a9.9,9.9,0,0,0-1,2.71,1.11,1.11,0,0,0,.32.84.9.9,0,0,0,.61.31,1,1,0,0,0,.48-.1A2.16,2.16,0,0,0,69.2,22c.16-.12.3-.24.43-.35s.28-.25.47-.43A4.85,4.85,0,0,1,70.5,20.83Z"/><path class="cls-1" d="M85.66,21.47l.74.55a4.94,4.94,0,0,1-1.65,1.82,3.82,3.82,0,0,1-2.19.86q-1.89,0-1.89-2a6.5,6.5,0,0,1,.48-2.21L80,21.73a11.88,11.88,0,0,1-3,2.37,5.78,5.78,0,0,1-2.48.6A2.33,2.33,0,0,1,72.66,24,2.73,2.73,0,0,1,72,22.11a7.15,7.15,0,0,1,1.73-4.43,13.2,13.2,0,0,1,4.41-3.57,12.3,12.3,0,0,1,5.38-1.41l.07,1.06-1.35.29a11.61,11.61,0,0,0-5.14,2.56q-2.22,1.92-2.22,3.82c0,1.27.51,1.91,1.54,1.91s2.14-.68,3.55-2a17.63,17.63,0,0,0,3.52-4.74l1.34.8q-2,4-2,5.09a1,1,0,0,0,.3.75.88.88,0,0,0,.61.31,1.65,1.65,0,0,0,.4,0l.19-.08a1.79,1.79,0,0,0,.24-.15,2.93,2.93,0,0,0,.26-.19l.37-.29C85.42,21.66,85.56,21.56,85.66,21.47Z"/><path class="cls-1" d="M91.93,21.63l.68.55a14.25,14.25,0,0,1-1.87,2.44,2.46,2.46,0,0,1-1.75.76,1.93,1.93,0,0,1-1.57-.77,3,3,0,0,1-.6-1.92q0-2.24,2.94-9.65a114.46,114.46,0,0,1,6-13l1.4.77q-3.13,6.08-5.66,12.08c-1.68,4-2.53,6.87-2.53,8.62,0,1,.38,1.51,1.12,1.51S91.34,22.53,91.93,21.63Z"/><path class="cls-2" d="M92.07,47.46l.16,1.5a8.78,8.78,0,0,1-1.57.16c-1,0-2-.66-2.88-2a16.55,16.55,0,0,1-2.16-4.68,25.9,25.9,0,0,1-1-5.19,25.65,25.65,0,0,1-3,6,3.87,3.87,0,0,1-2.92,1.88,1.41,1.41,0,0,1-1.22-.63A2.74,2.74,0,0,1,77,42.88c0-1.57.73-3.58,2.19-6a22.11,22.11,0,0,1,5.14-6c0-.12.23-.9.56-2.33s.53-2.22.59-2.37L87.37,26a18.39,18.39,0,0,1-.29,2.27C90,26.09,92.33,25,94.18,25a2.86,2.86,0,0,1,2.08.72A2.47,2.47,0,0,1,97,27.65q0,3-3.07,6.13a11.84,11.84,0,0,1-6.56,3.63A18.15,18.15,0,0,0,89,44.68C89.92,46.42,90.94,47.35,92.07,47.46ZM82.76,36.77a31.86,31.86,0,0,0,1.18-3.68,17.11,17.11,0,0,0-3.24,4.35,9.75,9.75,0,0,0-1.49,4c0,.44.18.67.54.67C80.39,42.15,81.39,40.35,82.76,36.77Zm2.18-.45A9,9,0,0,0,91,34q2.69-2.37,2.68-4.71a1.93,1.93,0,0,0-.43-1.34,1.74,1.74,0,0,0-1.36-.48,6,6,0,0,0-2.69,1,17.5,17.5,0,0,0-2.52,1.71C86,32.8,85.45,34.85,84.94,36.32Z"/><path class="cls-2" d="M104,35.88a5.78,5.78,0,0,1,.83,3A6.81,6.81,0,0,1,103,43.54a5.5,5.5,0,0,1-4.23,2A3.84,3.84,0,0,1,95.9,44.5a4.05,4.05,0,0,1-1-3,7.59,7.59,0,0,1,2.36-5.46,7.28,7.28,0,0,1,5.32-2.41,6.54,6.54,0,0,1,.76,0l.1,1.06a6.27,6.27,0,0,0-4.26,1.47A4.76,4.76,0,0,0,97.45,40a3.48,3.48,0,0,0,.67,2.23,2.54,2.54,0,0,0,4-.31,4.76,4.76,0,0,0,.77-2.7,6.45,6.45,0,0,0-.61-2.83Z"/><path class="cls-2" d="M114.57,35.88a5.78,5.78,0,0,1,.83,3,6.81,6.81,0,0,1-1.79,4.62,5.5,5.5,0,0,1-4.23,2,3.86,3.86,0,0,1-2.89-1.07,4.05,4.05,0,0,1-1-3,7.6,7.6,0,0,1,2.37-5.46,7.24,7.24,0,0,1,5.31-2.41,6.42,6.42,0,0,1,.76,0l.1,1.06a6.24,6.24,0,0,0-4.25,1.47A4.74,4.74,0,0,0,108,40a3.48,3.48,0,0,0,.67,2.23,2.54,2.54,0,0,0,4-.31,4.76,4.76,0,0,0,.77-2.7,6.45,6.45,0,0,0-.61-2.83Z"/><path class="cls-2" d="M137.7,41.22l.68.64c-1.22,2.18-2.62,3.26-4.2,3.26a2,2,0,0,1-1.49-.52,1.93,1.93,0,0,1-.52-1.41,8.45,8.45,0,0,1,1.05-3,9.34,9.34,0,0,0,1.12-3.26,1,1,0,0,0-.3-.83,1.25,1.25,0,0,0-.91-.32A2.77,2.77,0,0,0,132,36a3.5,3.5,0,0,0-1.15.88c-.38.4-.72.8-1,1.18a10.41,10.41,0,0,0-1,1.64c-.38.7-.69,1.29-.95,1.76q-.66,1.31-1.92,3.93L124,44.74c0-.06.36-1.27,1.06-3.62a25.5,25.5,0,0,0,1.06-4.19,1.29,1.29,0,0,0-.32-1,1.1,1.1,0,0,0-.8-.31q-1.44,0-4,3.59a21,21,0,0,0-3.25,6.11l-1.82-.61a37.59,37.59,0,0,1,1.51-6.1,32.34,32.34,0,0,1,2.27-6l1.44.51a23.56,23.56,0,0,0-1.38,3.73c-.25,1-.48,2.1-.67,3.25a30.77,30.77,0,0,1,4.61-5.52A5.44,5.44,0,0,1,127.05,33a1.44,1.44,0,0,1,1.63,1.63,11.53,11.53,0,0,1-.56,2.53c-.37,1.26-.67,2.25-.88,3q4.41-7.09,7.9-7.1a1.8,1.8,0,0,1,1.38.53,2.16,2.16,0,0,1,.51,1.56,9.26,9.26,0,0,1-1.2,3.45,10.33,10.33,0,0,0-1.2,3,1.34,1.34,0,0,0,.26.91.82.82,0,0,0,.64.29C136.08,42.82,136.81,42.29,137.7,41.22Z"/></g></g></svg>